<svg width="14" height="24" viewBox="0 0 14 24" fill="none" xmlns="http://www.w3.org/2000/svg">
<path d="M33.1426 21.4516H1.2664C0.571424 21.4516 0 22.023 0 22.7334C0 23.4438 0.571424 23.9998 1.2664 23.9998H33.1426C33.8375 23.9998 34.409 23.4284 34.409 22.7334C34.409 22.0384 33.853 21.4516 33.1426 21.4516Z" fill="url(#paint0_linear_0_196)"/>
<path d="M18.4089 4.09263V2.3938H19.0884C19.7062 2.3938 20.2004 1.8996 20.2004 1.28184V1.11196C20.2004 0.494204 19.7062 0 19.0884 0H15.3356C14.7178 0 14.2236 0.494204 14.2236 1.11196V1.29729C14.2236 1.91504 14.7178 2.40925 15.3356 2.40925H16.0151V4.10807C8.29314 4.72583 2.20825 11.1659 2.20825 19.0423H32.2157C32.2003 11.1505 26.1308 4.69494 18.4089 4.09263Z" fill="url(#paint1_linear_0_196)"/>
<defs>
<linearGradient id="paint0_linear_0_196" x1="1.21802" y1="19.7886" x2="1.09593" y2="26.4073" gradientUnits="userSpaceOnUse">
<stop stop-color="#3CBAF0"/>
<stop offset="0.85985" stop-color="#1957C7"/>
</linearGradient>
<linearGradient id="paint1_linear_0_196" x1="3.27046" y1="-12.427" x2="-4.35933" y2="35.8437" gradientUnits="userSpaceOnUse">
<stop stop-color="#3CBAF0"/>
<stop offset="0.85985" stop-color="#1957C7"/>
</linearGradient>
</defs>
</svg>
