<svg width="24" height="24" viewBox="0 0 24 24" fill="none" xmlns="http://www.w3.org/2000/svg">
<g clip-path="url(#clip0_0_80)">
<path opacity="0.2" d="M4.14 23.72H1.5C0.67 23.72 0 23.05 0 22.22V13.36C0 12.53 0.67 11.86 1.5 11.86H4.14C4.97 11.86 5.64 12.53 5.64 13.36V22.22C5.64 23.05 4.97 23.72 4.14 23.72Z" fill="#2270D2"/>
<path d="M13.18 23.72H10.54C9.71004 23.72 9.04004 23.05 9.04004 22.22V1.5C9.04004 0.67 9.71004 0 10.54 0H13.18C14.01 0 14.68 0.67 14.68 1.5V22.22C14.68 23.05 14.01 23.72 13.18 23.72Z" fill="#2270D2"/>
<path opacity="0.2" d="M22.2201 23.72H19.5801C18.7501 23.72 18.0801 23.05 18.0801 22.22V7.54999C18.0801 6.71999 18.7501 6.04999 19.5801 6.04999H22.2201C23.0501 6.04999 23.7201 6.71999 23.7201 7.54999V22.23C23.7201 23.05 23.0501 23.72 22.2201 23.72Z" fill="#2270D2"/>
</g>
<defs>
<clipPath id="clip0_0_80">
<rect width="23.72" height="23.72" fill="white"/>
</clipPath>
</defs>
</svg>
