<svg width="24" height="24" viewBox="0 0 24 24" fill="none" xmlns="http://www.w3.org/2000/svg">
<g opacity="0.8">
<path d="M4.14 23.7201H1.5C0.67 23.7201 0 23.0501 0 22.2201V13.3601C0 12.5301 0.67 11.8601 1.5 11.8601H4.14C4.97 11.8601 5.64 12.5301 5.64 13.3601V22.2201C5.64 23.0501 4.97 23.7201 4.14 23.7201Z" fill="#D6E0ED"/>
<path d="M13.18 23.72H10.54C9.71004 23.72 9.04004 23.05 9.04004 22.22V1.5C9.04004 0.67 9.71004 0 10.54 0H13.18C14.01 0 14.68 0.67 14.68 1.5V22.22C14.68 23.05 14.01 23.72 13.18 23.72Z" fill="#D6E0ED"/>
<path d="M22.2201 23.72H19.5801C18.7501 23.72 18.0801 23.05 18.0801 22.22V7.55005C18.0801 6.72005 18.7501 6.05005 19.5801 6.05005H22.2201C23.0501 6.05005 23.7201 6.72005 23.7201 7.55005V22.23C23.7201 23.05 23.0501 23.72 22.2201 23.72Z" fill="#D6E0ED"/>
</g>
</svg>
