<svg width="23" height="24" viewBox="0 0 23 24" fill="none" xmlns="http://www.w3.org/2000/svg">
<path d="M22.61 10.0275V22.4675C22.61 23.1575 22.05 23.7275 21.35 23.7275H16.14C15.45 23.7275 14.88 23.1675 14.88 22.4675V16.1875C14.88 15.4975 14.32 14.9275 13.62 14.9275H8.97C8.28 14.9275 7.71 15.4875 7.71 16.1875V22.4675C7.71 23.1575 7.15 23.7275 6.45 23.7275H1.25C0.56 23.7175 0 23.1575 0 22.4675V10.0275C0 9.6675 0.16 9.3175 0.43 9.0775L10.48 0.3075C10.95 -0.1025 11.66 -0.1025 12.13 0.3075L22.18 9.0775C22.45 9.3175 22.61 9.6675 22.61 10.0275Z" fill="url(#paint0_linear_0_151)"/>
<defs>
<linearGradient id="paint0_linear_0_151" x1="0.800354" y1="-15.4845" x2="-14.2838" y2="42.2226" gradientUnits="userSpaceOnUse">
<stop offset="0.0718532" stop-color="#3CBAF0"/>
<stop offset="0.9704" stop-color="#1957C7"/>
</linearGradient>
</defs>
</svg>
