<svg width="24" height="25" viewBox="0 0 24 25" fill="none" xmlns="http://www.w3.org/2000/svg">
<g opacity="0.8">
<path d="M20.8665 14.0725V23.9725C20.8665 24.5225 20.4165 24.9725 19.8665 24.9725H15.7165C15.1665 24.9725 14.7165 24.5225 14.7165 23.9725V18.9725C14.7165 18.4225 14.2665 17.9725 13.7165 17.9725H10.0065C9.45646 17.9725 9.00646 18.4225 9.00646 18.9725V23.9725C9.00646 24.5225 8.55646 24.9725 8.00646 24.9725H3.86646C3.31646 24.9725 2.86646 24.5225 2.86646 23.9725V14.0725C2.86646 13.7825 2.98646 13.5125 3.20646 13.3225L11.2065 6.33252C11.5865 6.00252 12.1465 6.00252 12.5265 6.33252L20.5265 13.3225C20.7365 13.5025 20.8665 13.7825 20.8665 14.0725Z" fill="#D6E0ED"/>
<path d="M1.24654 11.5125C0.896541 11.5125 0.546541 11.3725 0.306541 11.0825C-0.143459 10.5625 -0.0934593 9.7725 0.426541 9.3225L10.5165 0.5025C11.2865 -0.1675 12.4465 -0.1675 13.2065 0.5025L23.2965 9.3225C23.8165 9.7725 23.8665 10.5625 23.4165 11.0825C22.9665 11.6025 22.1765 11.6525 21.6565 11.2025L11.8665 2.6525L2.06654 11.2025C1.82654 11.4125 1.53654 11.5125 1.24654 11.5125Z" fill="#D6E0ED"/>
</g>
</svg>
