<svg width="20" height="21" viewBox="0 0 20 21" fill="none" xmlns="http://www.w3.org/2000/svg">
<path d="M19.6416 17.9222L15.3038 13.5844C16.373 12.1689 17.0109 10.4131 17.0109 8.50547C17.0109 3.81531 13.1956 0 8.50547 0C3.81531 0 0 3.81531 0 8.50547C0 13.1956 3.81531 17.0109 8.50547 17.0109C10.4131 17.0109 12.1689 16.373 13.5905 15.3098L17.9283 19.6476C18.1653 19.8846 18.4751 20.0061 18.7849 20.0061C19.0948 20.0061 19.4046 19.8846 19.6416 19.6476C20.1154 19.1677 20.1154 18.4022 19.6416 17.9222ZM2.43013 8.50547C2.43013 5.15796 5.15796 2.43013 8.50547 2.43013C11.853 2.43013 14.5808 5.15796 14.5808 8.50547C14.5808 10.1337 13.9307 11.616 12.8858 12.7035C12.8554 12.7278 12.819 12.7521 12.7886 12.7825C12.7582 12.8129 12.7339 12.8493 12.7096 12.8797C11.616 13.9307 10.1337 14.5808 8.50547 14.5808C5.15796 14.5808 2.43013 11.853 2.43013 8.50547Z" fill="white"/>
</svg>
