<svg width="48" height="16" viewBox="0 0 48 16" fill="none" xmlns="http://www.w3.org/2000/svg">
<path d="M20.8088 15.7316H16.8933L19.34 0.277344H23.2555L20.8088 15.7316Z" fill="white"/>
<path d="M13.5976 0.277344L9.86318 10.9068L9.42052 8.61636L8.10463 1.67063C8.10463 1.67063 7.94366 0.277344 6.24547 0.277344H0.0724346L0 0.537809C0 0.537809 1.88732 0.942977 4.09658 2.30318L7.50101 15.7316H11.5815L17.8109 0.277344H13.5976Z" fill="white"/>
<path d="M44.4024 15.7316H47.9999L44.8651 0.277344H41.7142C40.2615 0.277344 39.9074 1.43083 39.9074 1.43083L34.0684 15.7357H38.1488L38.9657 13.4412H43.9436L44.4024 15.7316ZM40.0925 10.266L42.1488 4.482L43.3078 10.266H40.0925Z" fill="white"/>
<path d="M34.3743 3.9938L34.9336 0.673902C34.9336 0.673902 33.2073 0 31.4125 0C29.4689 0 24.8532 0.872351 24.8532 5.11835C24.8532 9.11214 30.2697 9.16176 30.2697 11.2579C30.2697 13.354 25.4125 12.9819 23.8069 11.6589L23.2234 15.1276C23.2234 15.1276 24.9739 16 27.6459 16C30.318 16 34.3501 14.5778 34.3501 10.708C34.3501 6.68941 28.8854 6.31318 28.8854 4.56848C28.8813 2.81964 32.6962 3.04289 34.3743 3.9938Z" fill="white"/>
<path d="M9.42052 8.6205L8.10463 1.67063C8.10463 1.67063 7.94366 0.277344 6.24547 0.277344H0.0724346L0 0.537809C0 0.537809 2.96579 1.17037 5.81489 3.53523C8.53521 5.80086 9.42052 8.6205 9.42052 8.6205Z" fill="white"/>
</svg>
