<svg width="240" height="154" viewBox="0 0 240 154" fill="none" xmlns="http://www.w3.org/2000/svg">
<rect width="240" height="154" rx="20" fill="url(#paint0_linear_0_105)"/>
<mask id="mask0_0_105" style="mask-type:alpha" maskUnits="userSpaceOnUse" x="0" y="0" width="240" height="154">
<rect width="240" height="154" rx="20" fill="url(#paint1_linear_0_105)"/>
</mask>
<g mask="url(#mask0_0_105)">
<g style="mix-blend-mode:screen" opacity="0.2">
<circle cx="75.5" cy="165.5" r="101.5" fill="#1957C7"/>
</g>
<g style="mix-blend-mode:screen" opacity="0.3">
<circle cx="208" cy="6" r="39" fill="#1957C7"/>
</g>
</g>
<path d="M186.809 129.732H182.893L185.34 114.277H189.255L186.809 129.732Z" fill="white"/>
<path d="M179.598 114.277L175.863 124.907L175.421 122.616L174.105 115.671C174.105 115.671 173.944 114.277 172.245 114.277H166.072L166 114.538C166 114.538 167.887 114.943 170.097 116.303L173.501 129.732H177.581L183.811 114.277H179.598Z" fill="white"/>
<path d="M210.402 129.732H214L210.865 114.277H207.714C206.262 114.277 205.907 115.431 205.907 115.431L200.068 129.736H204.149L204.966 127.441H209.944L210.402 129.732ZM206.093 124.266L208.149 118.482L209.308 124.266H206.093Z" fill="white"/>
<path d="M200.374 117.994L200.934 114.674C200.934 114.674 199.207 114 197.413 114C195.469 114 190.853 114.872 190.853 119.118C190.853 123.112 196.27 123.162 196.27 125.258C196.27 127.354 191.413 126.982 189.807 125.659L189.223 129.128C189.223 129.128 190.974 130 193.646 130C196.318 130 200.35 128.578 200.35 124.708C200.35 120.689 194.885 120.313 194.885 118.568C194.881 116.82 198.696 117.043 200.374 117.994Z" fill="white"/>
<path d="M175.421 122.62L174.105 115.671C174.105 115.671 173.944 114.277 172.245 114.277H166.072L166 114.538C166 114.538 168.966 115.17 171.815 117.535C174.535 119.801 175.421 122.62 175.421 122.62Z" fill="white"/>
<path d="M36.692 114.646L31.016 128H27.804L33.546 114.998H26.352V112.336H36.692V114.646ZM40.7579 125.998C41.1099 126.79 41.2859 127.589 41.2859 128.396C41.2859 129.305 41.0439 130.053 40.5599 130.64C40.0905 131.227 39.3572 131.52 38.3599 131.52V130.332C38.7412 130.332 39.0199 130.237 39.1959 130.046C39.3719 129.87 39.4599 129.547 39.4599 129.078V128.858H38.0519V125.998H40.7579ZM51.579 116.692C51.3443 115.167 50.567 114.404 49.247 114.404C48.2203 114.404 47.4723 114.859 47.003 115.768C46.5336 116.663 46.3283 118.071 46.387 119.992C46.6216 119.288 47.0763 118.731 47.751 118.32C48.4403 117.895 49.2396 117.682 50.149 117.682C51.645 117.682 52.8183 118.137 53.669 119.046C54.5343 119.941 54.967 121.217 54.967 122.874C54.967 123.901 54.7616 124.81 54.351 125.602C53.9403 126.394 53.3243 127.017 52.503 127.472C51.6963 127.927 50.7136 128.154 49.555 128.154C47.2963 128.154 45.7416 127.457 44.891 126.064C44.0403 124.656 43.615 122.72 43.615 120.256C43.615 117.425 44.0696 115.328 44.979 113.964C45.903 112.6 47.3916 111.918 49.445 111.918C51.0143 111.918 52.217 112.365 53.053 113.26C53.889 114.155 54.3656 115.299 54.483 116.692H51.579ZM46.651 122.654C46.651 123.475 46.8856 124.157 47.355 124.7C47.839 125.228 48.543 125.492 49.467 125.492C50.259 125.492 50.8896 125.257 51.359 124.788C51.8283 124.319 52.063 123.666 52.063 122.83C52.063 121.95 51.821 121.275 51.337 120.806C50.8676 120.337 50.2296 120.102 49.423 120.102C48.6603 120.102 48.0076 120.322 47.465 120.762C46.9223 121.202 46.651 121.833 46.651 122.654ZM68.431 114.888H61.061V118.804C61.3983 118.408 61.8603 118.093 62.447 117.858C63.0483 117.609 63.7083 117.484 64.427 117.484C65.4976 117.484 66.385 117.719 67.089 118.188C67.8076 118.643 68.3356 119.259 68.673 120.036C69.025 120.799 69.201 121.649 69.201 122.588C69.201 124.245 68.7316 125.573 67.793 126.57C66.869 127.567 65.5416 128.066 63.811 128.066C62.6816 128.066 61.699 127.868 60.863 127.472C60.027 127.061 59.3743 126.497 58.905 125.778C58.4356 125.045 58.179 124.194 58.135 123.226H61.149C61.2663 123.886 61.5376 124.414 61.963 124.81C62.3883 125.191 62.953 125.382 63.657 125.382C64.5076 125.382 65.1383 125.125 65.549 124.612C65.9743 124.084 66.187 123.387 66.187 122.522C66.187 121.701 65.967 121.063 65.527 120.608C65.087 120.153 64.4636 119.926 63.657 119.926C63.0703 119.926 62.5716 120.058 62.161 120.322C61.7503 120.571 61.4496 120.909 61.259 121.334H58.245V112.16H68.431V114.888ZM71.9248 116.01C71.9248 115.262 72.1302 114.565 72.5408 113.92C72.9662 113.275 73.5895 112.754 74.4108 112.358C75.2468 111.962 76.2515 111.764 77.4248 111.764C78.5982 111.764 79.5955 111.962 80.4168 112.358C81.2528 112.754 81.8762 113.275 82.2868 113.92C82.7122 114.565 82.9248 115.262 82.9248 116.01C82.9248 116.861 82.7195 117.587 82.3088 118.188C81.8982 118.775 81.2822 119.215 80.4608 119.508C81.3848 119.86 82.0888 120.373 82.5728 121.048C83.0715 121.708 83.3208 122.515 83.3208 123.468C83.3208 124.495 83.0642 125.382 82.5508 126.13C82.0375 126.863 81.3335 127.421 80.4388 127.802C79.5588 128.183 78.5542 128.374 77.4248 128.374C76.2955 128.374 75.2835 128.183 74.3888 127.802C73.5088 127.421 72.8122 126.863 72.2988 126.13C71.8002 125.382 71.5508 124.495 71.5508 123.468C71.5508 122.515 71.7928 121.708 72.2768 121.048C72.7755 120.373 73.4868 119.86 74.4108 119.508C73.5895 119.215 72.9662 118.767 72.5408 118.166C72.1302 117.565 71.9248 116.846 71.9248 116.01ZM74.9828 116.516C74.9828 117.22 75.2028 117.763 75.6428 118.144C76.0828 118.525 76.6768 118.716 77.4248 118.716C78.1875 118.716 78.7888 118.525 79.2288 118.144C79.6688 117.763 79.8888 117.22 79.8888 116.516C79.8888 115.812 79.6615 115.269 79.2068 114.888C78.7668 114.492 78.1728 114.294 77.4248 114.294C76.6915 114.294 76.0975 114.492 75.6428 114.888C75.2028 115.269 74.9828 115.812 74.9828 116.516ZM74.5648 123.292C74.5648 124.069 74.8215 124.685 75.3348 125.14C75.8482 125.595 76.5448 125.822 77.4248 125.822C78.3048 125.822 79.0015 125.595 79.5148 125.14C80.0428 124.685 80.3068 124.069 80.3068 123.292C80.3068 122.5 80.0355 121.899 79.4928 121.488C78.9648 121.063 78.2755 120.85 77.4248 120.85C76.5888 120.85 75.8995 121.063 75.3568 121.488C74.8288 121.899 74.5648 122.5 74.5648 123.292Z" fill="white"/>
<path d="M29.496 98.088C29.8373 98.1573 30.112 98.32 30.32 98.576C30.5333 98.832 30.64 99.1307 30.64 99.472C30.64 99.9413 30.4827 100.315 30.168 100.592C29.8533 100.864 29.3973 101 28.8 101H26.552V95.352H28.76C29.3253 95.352 29.7573 95.48 30.056 95.736C30.36 95.9867 30.512 96.3333 30.512 96.776C30.512 97.1333 30.4187 97.424 30.232 97.648C30.0453 97.8667 29.8 98.0133 29.496 98.088ZM27.464 97.784H28.592C28.912 97.784 29.1547 97.7093 29.32 97.56C29.4907 97.4107 29.576 97.2027 29.576 96.936C29.576 96.6747 29.4907 96.4693 29.32 96.32C29.1547 96.1707 28.9013 96.096 28.56 96.096H27.464V97.784ZM28.616 100.248C28.9627 100.248 29.2293 100.171 29.416 100.016C29.608 99.856 29.704 99.6347 29.704 99.352C29.704 99.0693 29.608 98.848 29.416 98.688C29.224 98.528 28.9547 98.448 28.608 98.448H27.464V100.248H28.616ZM33.3453 96.536C33.7453 96.536 34.0866 96.6347 34.3693 96.832C34.652 97.0293 34.852 97.2907 34.9693 97.616V96.592H35.8813V101H34.9693V99.976C34.852 100.301 34.652 100.563 34.3693 100.76C34.0866 100.957 33.7453 101.056 33.3453 101.056C32.9613 101.056 32.6173 100.965 32.3133 100.784C32.0146 100.603 31.78 100.341 31.6093 100C31.4386 99.6587 31.3533 99.256 31.3533 98.792C31.3533 98.3333 31.4386 97.9333 31.6093 97.592C31.78 97.2507 32.0146 96.9893 32.3133 96.808C32.6173 96.6267 32.9613 96.536 33.3453 96.536ZM33.6253 97.336C33.22 97.336 32.8946 97.4667 32.6493 97.728C32.4093 97.984 32.2893 98.3387 32.2893 98.792C32.2893 99.2453 32.4093 99.6027 32.6493 99.864C32.8946 100.12 33.22 100.248 33.6253 100.248C33.8813 100.248 34.1106 100.189 34.3133 100.072C34.516 99.9493 34.676 99.7787 34.7933 99.56C34.9106 99.3413 34.9693 99.0853 34.9693 98.792C34.9693 98.504 34.9106 98.2507 34.7933 98.032C34.676 97.808 34.516 97.6373 34.3133 97.52C34.1106 97.3973 33.8813 97.336 33.6253 97.336ZM37.9677 95.08V101H37.0557V95.08H37.9677ZM40.9194 96.536C41.3194 96.536 41.6607 96.6347 41.9434 96.832C42.226 97.0293 42.426 97.2907 42.5434 97.616V96.592H43.4554V101H42.5434V99.976C42.426 100.301 42.226 100.563 41.9434 100.76C41.6607 100.957 41.3194 101.056 40.9194 101.056C40.5354 101.056 40.1914 100.965 39.8874 100.784C39.5887 100.603 39.354 100.341 39.1834 100C39.0127 99.6587 38.9274 99.256 38.9274 98.792C38.9274 98.3333 39.0127 97.9333 39.1834 97.592C39.354 97.2507 39.5887 96.9893 39.8874 96.808C40.1914 96.6267 40.5354 96.536 40.9194 96.536ZM41.1994 97.336C40.794 97.336 40.4687 97.4667 40.2234 97.728C39.9834 97.984 39.8634 98.3387 39.8634 98.792C39.8634 99.2453 39.9834 99.6027 40.2234 99.864C40.4687 100.12 40.794 100.248 41.1994 100.248C41.4554 100.248 41.6847 100.189 41.8874 100.072C42.09 99.9493 42.25 99.7787 42.3674 99.56C42.4847 99.3413 42.5434 99.0853 42.5434 98.792C42.5434 98.504 42.4847 98.2507 42.3674 98.032C42.25 97.808 42.09 97.6373 41.8874 97.52C41.6847 97.3973 41.4554 97.336 41.1994 97.336ZM47.0938 96.52C47.6058 96.52 48.0165 96.6853 48.3258 97.016C48.6351 97.3467 48.7898 97.8187 48.7898 98.432V101H47.8778V98.528C47.8778 98.1333 47.7765 97.8293 47.5738 97.616C47.3711 97.3973 47.0938 97.288 46.7418 97.288C46.3791 97.288 46.0885 97.4053 45.8698 97.64C45.6511 97.8693 45.5418 98.208 45.5418 98.656V101H44.6298V96.592H45.5418V97.56C45.6591 97.2293 45.8565 96.9733 46.1338 96.792C46.4111 96.6107 46.7311 96.52 47.0938 96.52ZM51.8964 96.536C52.467 96.536 52.939 96.688 53.3124 96.992C53.6857 97.2907 53.9177 97.6987 54.0084 98.216H53.0404C52.987 97.9387 52.8564 97.7227 52.6484 97.568C52.4457 97.408 52.1897 97.328 51.8804 97.328C51.5284 97.328 51.235 97.4533 51.0004 97.704C50.7657 97.9493 50.6484 98.312 50.6484 98.792C50.6484 99.272 50.7657 99.6373 51.0004 99.888C51.235 100.139 51.5284 100.264 51.8804 100.264C52.1897 100.264 52.4457 100.184 52.6484 100.024C52.8564 99.864 52.987 99.6453 53.0404 99.368H54.0084C53.9177 99.8853 53.6857 100.296 53.3124 100.6C52.939 100.904 52.467 101.056 51.8964 101.056C51.4697 101.056 51.091 100.965 50.7604 100.784C50.435 100.603 50.179 100.341 49.9924 100C49.8057 99.6587 49.7124 99.256 49.7124 98.792C49.7124 98.3333 49.8057 97.9333 49.9924 97.592C50.179 97.2507 50.435 96.9893 50.7604 96.808C51.091 96.6267 51.4697 96.536 51.8964 96.536ZM59.0655 98.584C59.0655 98.7333 59.0548 98.864 59.0335 98.976H55.6415C55.6575 99.4293 55.7828 99.7653 56.0175 99.984C56.2522 100.203 56.5428 100.312 56.8895 100.312C57.1935 100.312 57.4495 100.235 57.6575 100.08C57.8708 99.9253 58.0015 99.72 58.0495 99.464H59.0255C58.9668 99.7733 58.8442 100.048 58.6575 100.288C58.4708 100.528 58.2282 100.717 57.9295 100.856C57.6308 100.989 57.2975 101.056 56.9295 101.056C56.5028 101.056 56.1242 100.965 55.7935 100.784C55.4682 100.603 55.2122 100.341 55.0255 100C54.8388 99.6587 54.7455 99.256 54.7455 98.792C54.7455 98.3333 54.8388 97.9333 55.0255 97.592C55.2122 97.2507 55.4682 96.9893 55.7935 96.808C56.1242 96.6267 56.5028 96.536 56.9295 96.536C57.3615 96.536 57.7375 96.6267 58.0575 96.808C58.3828 96.984 58.6308 97.2293 58.8015 97.544C58.9775 97.8533 59.0655 98.2 59.0655 98.584ZM58.1455 98.56C58.1562 98.272 58.1055 98.032 57.9935 97.84C57.8868 97.6427 57.7375 97.4987 57.5455 97.408C57.3588 97.312 57.1535 97.264 56.9295 97.264C56.5722 97.264 56.2735 97.3733 56.0335 97.592C55.7935 97.8107 55.6628 98.1333 55.6415 98.56H58.1455Z" fill="white"/>
<path d="M34.22 26.752C34.22 27.592 34.044 28.332 33.692 28.972C33.34 29.612 32.828 30.112 32.156 30.472C31.492 30.824 30.7 31 29.78 31H26.768V22.528H29.78C30.7 22.528 31.492 22.704 32.156 23.056C32.828 23.4 33.34 23.892 33.692 24.532C34.044 25.164 34.22 25.904 34.22 26.752ZM29.636 29.488C30.548 29.488 31.252 29.248 31.748 28.768C32.252 28.288 32.504 27.616 32.504 26.752C32.504 25.88 32.252 25.204 31.748 24.724C31.252 24.244 30.548 24.004 29.636 24.004H28.46V29.488H29.636ZM41.8588 27.424C41.8588 27.592 41.8388 27.784 41.7988 28H36.9268C36.9507 28.592 37.1107 29.028 37.4068 29.308C37.7028 29.588 38.0708 29.728 38.5108 29.728C38.9028 29.728 39.2268 29.632 39.4828 29.44C39.7468 29.248 39.9148 28.988 39.9868 28.66H41.7747C41.6868 29.124 41.4988 29.54 41.2108 29.908C40.9228 30.276 40.5508 30.564 40.0948 30.772C39.6468 30.98 39.1468 31.084 38.5948 31.084C37.9468 31.084 37.3708 30.948 36.8668 30.676C36.3627 30.396 35.9707 30 35.6907 29.488C35.4107 28.976 35.2707 28.372 35.2707 27.676C35.2707 26.98 35.4107 26.376 35.6907 25.864C35.9707 25.344 36.3627 24.948 36.8668 24.676C37.3708 24.404 37.9468 24.268 38.5948 24.268C39.2508 24.268 39.8228 24.404 40.3108 24.676C40.8068 24.948 41.1867 25.324 41.4507 25.804C41.7228 26.276 41.8588 26.816 41.8588 27.424ZM40.1548 27.256C40.1788 26.712 40.0347 26.3 39.7227 26.02C39.4188 25.74 39.0428 25.6 38.5948 25.6C38.1388 25.6 37.7548 25.74 37.4427 26.02C37.1307 26.3 36.9587 26.712 36.9268 27.256H40.1548ZM47.1519 24.268C47.7119 24.268 48.2159 24.404 48.6639 24.676C49.1119 24.948 49.4599 25.344 49.7079 25.864C49.9639 26.376 50.0919 26.98 50.0919 27.676C50.0919 28.372 49.9639 28.98 49.7079 29.5C49.4599 30.012 49.1119 30.404 48.6639 30.676C48.2159 30.948 47.7119 31.084 47.1519 31.084C46.5919 31.084 46.1119 30.952 45.7119 30.688C45.3199 30.416 45.0399 30.056 44.8719 29.608V31H43.1799V22.12H44.8719V25.732C45.0399 25.284 45.3199 24.928 45.7119 24.664C46.1119 24.4 46.5919 24.268 47.1519 24.268ZM46.6239 25.744C46.1119 25.744 45.6879 25.92 45.3519 26.272C45.0239 26.616 44.8599 27.084 44.8599 27.676C44.8599 28.26 45.0239 28.728 45.3519 29.08C45.6879 29.424 46.1119 29.596 46.6239 29.596C47.1519 29.596 47.5759 29.428 47.8959 29.092C48.2159 28.748 48.3759 28.276 48.3759 27.676C48.3759 27.076 48.2159 26.604 47.8959 26.26C47.5759 25.916 47.1519 25.744 46.6239 25.744ZM51.2173 22.444C51.2173 22.172 51.3133 21.952 51.5053 21.784C51.6973 21.608 51.9493 21.52 52.2613 21.52C52.5733 21.52 52.8253 21.608 53.0173 21.784C53.2093 21.952 53.3053 22.172 53.3053 22.444C53.3053 22.708 53.2093 22.928 53.0173 23.104C52.8253 23.272 52.5733 23.356 52.2613 23.356C51.9493 23.356 51.6973 23.272 51.5053 23.104C51.3133 22.928 51.2173 22.708 51.2173 22.444ZM53.1013 24.352V31H51.4093V24.352H53.1013ZM58.3039 29.548V31H57.4159C56.6719 31 56.0999 30.82 55.6999 30.46C55.3079 30.1 55.1119 29.5 55.1119 28.66V25.78H54.1879V24.352H55.1119V22.708H56.8039V24.352H58.2919V25.78H56.8039V28.684C56.8039 29.004 56.8679 29.228 56.9959 29.356C57.1239 29.484 57.3399 29.548 57.6439 29.548H58.3039ZM66.2027 22.444C67.2587 22.444 68.1347 22.716 68.8307 23.26C69.5267 23.804 69.9867 24.544 70.2107 25.48H68.4347C68.2507 25.024 67.9627 24.664 67.5707 24.4C67.1867 24.136 66.7227 24.004 66.1787 24.004C65.7307 24.004 65.3267 24.116 64.9667 24.34C64.6067 24.564 64.3267 24.884 64.1267 25.3C63.9267 25.716 63.8267 26.204 63.8267 26.764C63.8267 27.316 63.9267 27.8 64.1267 28.216C64.3267 28.632 64.6067 28.952 64.9667 29.176C65.3267 29.4 65.7307 29.512 66.1787 29.512C66.7227 29.512 67.1867 29.38 67.5707 29.116C67.9627 28.852 68.2507 28.492 68.4347 28.036H70.2107C69.9867 28.972 69.5267 29.712 68.8307 30.256C68.1347 30.8 67.2587 31.072 66.2027 31.072C65.3947 31.072 64.6787 30.892 64.0547 30.532C63.4387 30.164 62.9587 29.652 62.6147 28.996C62.2787 28.34 62.1107 27.596 62.1107 26.764C62.1107 25.924 62.2787 25.176 62.6147 24.52C62.9587 23.864 63.4387 23.356 64.0547 22.996C64.6707 22.628 65.3867 22.444 66.2027 22.444ZM74.2042 24.268C74.7642 24.268 75.2442 24.4 75.6442 24.664C76.0442 24.928 76.3282 25.284 76.4962 25.732V24.352H78.1762V31H76.4962V29.608C76.3282 30.056 76.0442 30.416 75.6442 30.688C75.2442 30.952 74.7642 31.084 74.2042 31.084C73.6442 31.084 73.1402 30.948 72.6922 30.676C72.2442 30.404 71.8922 30.012 71.6362 29.5C71.3882 28.98 71.2642 28.372 71.2642 27.676C71.2642 26.98 71.3882 26.376 71.6362 25.864C71.8922 25.344 72.2442 24.948 72.6922 24.676C73.1402 24.404 73.6442 24.268 74.2042 24.268ZM74.7322 25.744C74.2042 25.744 73.7802 25.916 73.4602 26.26C73.1402 26.604 72.9802 27.076 72.9802 27.676C72.9802 28.276 73.1402 28.748 73.4602 29.092C73.7802 29.428 74.2042 29.596 74.7322 29.596C75.2442 29.596 75.6642 29.424 75.9922 29.08C76.3282 28.728 76.4962 28.26 76.4962 27.676C76.4962 27.084 76.3282 26.616 75.9922 26.272C75.6642 25.92 75.2442 25.744 74.7322 25.744ZM81.5216 25.624C81.7696 25.2 82.0976 24.868 82.5056 24.628C82.9136 24.38 83.3696 24.256 83.8736 24.256V26.068H83.3816C82.1416 26.068 81.5216 26.644 81.5216 27.796V31H79.8296V24.352H81.5216V25.624ZM87.534 24.268C88.094 24.268 88.57 24.4 88.962 24.664C89.362 24.928 89.65 25.284 89.826 25.732V22.12H91.506V31H89.826V29.608C89.65 30.056 89.362 30.416 88.962 30.688C88.57 30.952 88.094 31.084 87.534 31.084C86.974 31.084 86.47 30.948 86.022 30.676C85.574 30.404 85.222 30.012 84.966 29.5C84.718 28.98 84.594 28.372 84.594 27.676C84.594 26.98 84.718 26.376 84.966 25.864C85.222 25.344 85.574 24.948 86.022 24.676C86.47 24.404 86.974 24.268 87.534 24.268ZM88.062 25.744C87.534 25.744 87.11 25.916 86.79 26.26C86.47 26.604 86.31 27.076 86.31 27.676C86.31 28.276 86.47 28.748 86.79 29.092C87.11 29.428 87.534 29.596 88.062 29.596C88.574 29.596 88.994 29.424 89.322 29.08C89.658 28.728 89.826 28.26 89.826 27.676C89.826 27.084 89.658 26.616 89.322 26.272C88.994 25.92 88.574 25.744 88.062 25.744Z" fill="white"/>
<path d="M191.983 27.41C191.983 29.8033 192.883 31 194.683 31C195.636 31 196.323 30.68 196.743 30.04C197.163 29.4 197.373 28.5233 197.373 27.41C197.373 26.3033 197.163 25.43 196.743 24.79C196.323 24.15 195.636 23.83 194.683 23.83C192.883 23.83 191.983 25.0233 191.983 27.41ZM195.983 27.41C195.983 28.1367 195.893 28.6967 195.713 29.09C195.539 29.4767 195.196 29.67 194.683 29.67C194.163 29.67 193.813 29.4767 193.633 29.09C193.459 28.6967 193.373 28.1367 193.373 27.41C193.373 26.69 193.459 26.1367 193.633 25.75C193.813 25.3567 194.163 25.16 194.683 25.16C195.196 25.16 195.539 25.3567 195.713 25.75C195.893 26.1367 195.983 26.69 195.983 27.41ZM202.141 25.86C202.034 25.1667 201.681 24.82 201.081 24.82C200.614 24.82 200.274 25.0267 200.061 25.44C199.848 25.8467 199.754 26.4867 199.781 27.36C199.888 27.04 200.094 26.7867 200.401 26.6C200.714 26.4067 201.078 26.31 201.491 26.31C202.171 26.31 202.704 26.5167 203.091 26.93C203.484 27.3367 203.681 27.9167 203.681 28.67C203.681 29.1367 203.588 29.55 203.401 29.91C203.214 30.27 202.934 30.5533 202.561 30.76C202.194 30.9667 201.748 31.07 201.221 31.07C200.194 31.07 199.488 30.7533 199.101 30.12C198.714 29.48 198.521 28.6 198.521 27.48C198.521 26.1933 198.728 25.24 199.141 24.62C199.561 24 200.238 23.69 201.171 23.69C201.884 23.69 202.431 23.8933 202.811 24.3C203.191 24.7067 203.408 25.2267 203.461 25.86H202.141ZM199.901 28.57C199.901 28.9433 200.008 29.2533 200.221 29.5C200.441 29.74 200.761 29.86 201.181 29.86C201.541 29.86 201.828 29.7533 202.041 29.54C202.254 29.3267 202.361 29.03 202.361 28.65C202.361 28.25 202.251 27.9433 202.031 27.73C201.818 27.5167 201.528 27.41 201.161 27.41C200.814 27.41 200.518 27.51 200.271 27.71C200.024 27.91 199.901 28.1967 199.901 28.57ZM204.401 25.26V23.94H206.941V31H205.461V25.26H204.401ZM208.152 27.41C208.152 29.8033 209.052 31 210.852 31C211.805 31 212.492 30.68 212.912 30.04C213.332 29.4 213.542 28.5233 213.542 27.41C213.542 26.3033 213.332 25.43 212.912 24.79C212.492 24.15 211.805 23.83 210.852 23.83C209.052 23.83 208.152 25.0233 208.152 27.41ZM212.152 27.41C212.152 28.1367 212.062 28.6967 211.882 29.09C211.708 29.4767 211.365 29.67 210.852 29.67C210.332 29.67 209.982 29.4767 209.802 29.09C209.628 28.6967 209.542 28.1367 209.542 27.41C209.542 26.69 209.628 26.1367 209.802 25.75C209.982 25.3567 210.332 25.16 210.852 25.16C211.365 25.16 211.708 25.3567 211.882 25.75C212.062 26.1367 212.152 26.69 212.152 27.41Z" fill="white"/>
<path d="M168.368 24.13L168.868 25.04L167.558 25.51L168.868 25.97L168.338 26.91L167.268 26.01L167.498 27.4H166.458L166.678 26.01L165.598 26.92L165.048 25.97L166.358 25.5L165.068 25.04L165.578 24.13L166.678 25.01L166.448 23.62H167.498L167.268 25.01L168.368 24.13ZM173.546 24.13L174.046 25.04L172.736 25.51L174.046 25.97L173.516 26.91L172.446 26.01L172.676 27.4H171.636L171.856 26.01L170.776 26.92L170.226 25.97L171.536 25.5L170.246 25.04L170.756 24.13L171.856 25.01L171.626 23.62H172.676L172.446 25.01L173.546 24.13ZM178.724 24.13L179.224 25.04L177.914 25.51L179.224 25.97L178.694 26.91L177.624 26.01L177.854 27.4H176.814L177.034 26.01L175.954 26.92L175.404 25.97L176.714 25.5L175.424 25.04L175.934 24.13L177.034 25.01L176.804 23.62H177.854L177.624 25.01L178.724 24.13ZM183.902 24.13L184.402 25.04L183.092 25.51L184.402 25.97L183.872 26.91L182.802 26.01L183.032 27.4H181.992L182.212 26.01L181.132 26.92L180.582 25.97L181.892 25.5L180.602 25.04L181.112 24.13L182.212 25.01L181.982 23.62H183.032L182.802 25.01L183.902 24.13Z" fill="white"/>
<defs>
<linearGradient id="paint0_linear_0_105" x1="8.49558" y1="-100.5" x2="-53.8629" y2="289.664" gradientUnits="userSpaceOnUse">
<stop stop-color="#3CBAF0"/>
<stop offset="0.85985" stop-color="#1957C7"/>
</linearGradient>
<linearGradient id="paint1_linear_0_105" x1="8.49558" y1="-100.5" x2="-53.8629" y2="289.664" gradientUnits="userSpaceOnUse">
<stop stop-color="#3CBAF0"/>
<stop offset="0.85985" stop-color="#1957C7"/>
</linearGradient>
</defs>
</svg>
